<svg xmlns="http://www.w3.org/2000/svg" viewBox="0 0 480 480"><path fill="#FFF" d="M453 92H312V66c0-12-10-22-22-22H190c-12 0-22 10-22 22v26H27c-15 0-27 12-27 27v290c0 15 12 27 27 27h426c15 0 27-12 27-27V119c0-15-12-27-27-27zM184 66c0-3 3-6 6-6h100c3 0 6 3 6 6v26H184V66zm280 343c0 6-5 11-11 11H27c-6 0-11-5-11-11V226c24 11 82 33 192 34v24c0 4 4 8 8 8h48c4 0 8-4 8-8v-24c110-1 168-23 192-34v183zM224 276v-56h32v56h-32zm240-68c-14 7-71 35-192 36v-32c0-4-4-8-8-8h-48c-4 0-8 4-8 8v32c-121-1-178-29-192-36v-89c0-6 5-11 11-11h426c6 0 11 5 11 11v89z"/></svg>