<svg xmlns="http://www.w3.org/2000/svg" viewBox="0 0 60 60"><path fill="#FFF" d="M48 42.9L38.5 38a2.6 2.6 0 01-1.5-2.4v-3.3l.7-1c1.3-1.7 2.3-3.7 3-5.8A4 4 0 0043 22v-4a4 4 0 00-1-2.6V10a9 9 0 00-2-6.6C37.8 1.2 34.4 0 30 0s-7.9 1.2-10 3.5a9 9 0 00-2 6.6v5.3a4 4 0 00-1 2.6v4a4 4 0 001.5 3.1 21 21 0 003.5 7.2v3.4c0 1-.5 1.8-1.4 2.3l-8.9 4.8a9 9 0 00-4.7 8V54c0 4.7 15 6 23 6s23-1.3 23-6v-3a9 9 0 00-5-8.1zM51 54c0 1.4-7.4 4-21 4S9 55.4 9 54v-3.2a7 7 0 013.7-6.2l8.9-4.9a4.6 4.6 0 002.4-4v-4l-.2-.3s-2.5-3-3.4-7.1l-.1-.4-.4-.2A2 2 0 0119 22v-4c0-.6.2-1 .7-1.5l.3-.3V10s-.4-2.8 1.6-5C23.3 2.8 26.1 2 30 2c3.9 0 6.7 1 8.4 2.8 2 2.2 1.6 5 1.6 5v6.4l.3.3c.5.4.7 1 .7 1.5v4a2 2 0 01-1.4 1.9l-.5.2-.2.4a21 21 0 01-3.7 6.8l-.2.3v4.1c0 1.8 1 3.4 2.6 4.2l9.5 4.8A7 7 0 0151 51v3z"/></svg>