<svg xmlns="http://www.w3.org/2000/svg" viewBox="0 0 60 60"><path fill="#FFF" d="M55 45.4l-9.5-4.8a2.6 2.6 0 01-1.5-2.4V35l.7-1c1.3-1.7 2.3-3.7 3-5.8a4 4 0 002.3-3.6v-4a4 4 0 00-1-2.6v-5.3A9 9 0 0047 6c-2.1-2.3-5.5-3.5-10-3.5S29.1 3.7 27 6a8.7 8.7 0 00-2 4.8 13 13 0 00-6-1.3c-10.4 0-11 8.9-11 9v4.6c-.6.7-1 1.5-1 2.3V29c0 1 .5 2 1.3 2.7.8 3.1 2.9 5.5 3.7 6.3v2.8c0 .7-.5 1.5-1.2 1.9L4 46.7a8 8 0 00-4.1 7v3.8h60v-4a9 9 0 00-5-8.1zm-41 7.9v2.2H2v-1.8a6 6 0 013.1-5.2l6.7-4.2a4.1 4.1 0 002.2-3.6V37l-.4-.3s-2.6-2.6-3.4-6l-.1-.4-.4-.2c-.4-.3-.7-.8-.7-1.3v-3.5c0-.4.2-.8.7-1.2l.3-.3v-5.3c0-.3.5-7.1 9-7.1 2.4 0 4.4.6 6 1.6V18a4 4 0 00-1 2.6v4l.1.9.1.3.2.5c.3.6.6 1 1.1 1.4l.2.7v.3l.1.1.1.4.2.5.1.3.3.6v.2l.2.2.3.6v.1l.2.4a21.8 21.8 0 00.9 1.5v.2l.7.9.1.1.1.1v3.4c0 1-.5 1.8-1.4 2.3L25 41.9h-.5l-.2.4-5.6 3a9 9 0 00-4.7 8zm44 2.2H16v-2.2a7 7 0 013.7-6.2l8.9-4.9a4.6 4.6 0 002.4-4v-4l-.2-.3-.2-.3-.2-.2-.5-.8-.4-.5-.7-1.4-.4-.8-.2-.5v-.1l-.2-.4-.3-.9v-.2l-.3-1-.1-.4-.4-.2a2 2 0 01-.9-1.7v-4c0-.6.2-1 .7-1.5l.3-.3V12.1c0-.7 0-3 1.6-4.8 1.7-1.8 4.5-2.8 8.4-2.8 3.9 0 6.7 1 8.4 2.8 2 2.2 1.6 5 1.6 5v6.4l.3.3c.5.4.7 1 .7 1.5v4a2 2 0 01-1.4 1.9l-.5.2-.2.4a21 21 0 01-3.7 6.8l-.2.3v4.1c0 1.8 1 3.4 2.6 4.2l9.5 4.8a7 7 0 013.9 6.3v2z"/></svg>