<svg xmlns="http://www.w3.org/2000/svg" viewBox="0 0 512 512"><path fill="#FFF" d="M512 246A250 250 0 00256 0 250 250 0 000 246c0 68 30 133 80 179v62a25 25 0 0025 25c5 0 10-1 14-4l49-31c28 10 58 15 87 15h6a250 250 0 00251-246zm-98 154a220 220 0 01-158 62c-28 0-55-5-81-14-6-3-13-2-19 2l-46 28v-57c0-6-2-12-7-17-46-39-73-97-73-158A220 220 0 01256 30a220 220 0 01226 216c-2 59-26 114-68 154zm0 0"/><path fill="#FFF" d="M395 164l-96 52-57-49c-10-9-25-8-34 1L88 289a25 25 0 000 35 25 25 0 0029 4l96-52 57 49c10 9 25 8 34-1l120-121c9-8 10-22 3-32-8-10-22-13-32-7zM286 299l-58-49a22 22 0 00-25-3l-70 38 93-92 58 49c7 6 17 7 25 3l70-38zm0 0"/></svg>