<svg xmlns="http://www.w3.org/2000/svg" viewBox="0 0 512 512"><path d="M196 20a10 10 0 0010-10 10 10 0 00-10-10 10 10 0 00-10 10 10 10 0 0010 10zm0 0"/><path d="M470 204h-78V10c0-6-4-10-10-10H236a10 10 0 100 20h136v184h-70c-23 0-42 19-42 42v24h-81a10 10 0 100 20h81v76h-81a10 10 0 100 20h81v58H90c-6 0-10 4-10 10v8a30 30 0 01-60 0V20h136a10 10 0 100-20H10C4 0 0 4 0 10v452c0 28 22 50 50 50h420c23 0 42-19 42-42V246c0-23-19-42-42-42zM100 464h160v6c0 8 2 16 6 22H90c6-8 10-18 10-28zm392 6c0 12-10 22-22 22H302c-12 0-22-10-22-22V246c0-12 10-22 22-22h168c12 0 22 10 22 22zm0 0"/><path d="M458 248H314c-6 0-10 4-10 10v56c0 6 4 10 10 10h144c6 0 10-4 10-10v-56c0-6-4-10-10-10zm-10 56H324v-36h124zm0 0M333 340h-19a10 10 0 000 20h19a10 10 0 100-20zm0 0M396 340h-20a10 10 0 000 20h20a10 10 0 100-20zm0 0M458 340h-19a10 10 0 000 20h19a10 10 0 100-20zm0 0M333 377h-19a10 10 0 000 20h19a10 10 0 100-20zm0 0M396 377h-20a10 10 0 000 20h20a10 10 0 100-20zm0 0M458 377h-19a10 10 0 000 20h19a10 10 0 100-20zm0 0M333 413h-19a10 10 0 000 20h19a10 10 0 100-20zm0 0M396 413h-20a10 10 0 000 20h20a10 10 0 100-20zm0 0M458 413h-19a10 10 0 000 20h19a10 10 0 100-20zm0 0M333 450h-19a10 10 0 000 20h19a10 10 0 100-20zm0 0M396 450h-20a10 10 0 000 20h20a10 10 0 100-20zm0 0M458 450h-19a10 10 0 000 20h19a10 10 0 100-20zm0 0M122 64c0-6-4-10-10-10H64c-6 0-10 4-10 10v48c0 6 4 10 10 10h48c6 0 10-4 10-10zm-20 38H74V74h28zm0 0M122 160c0-6-4-10-10-10H64c-6 0-10 4-10 10v48c0 6 4 10 10 10h48c6 0 10-4 10-10zm-20 38H74v-28h28zm0 0M122 256c0-6-4-10-10-10H64c-6 0-10 4-10 10v48c0 6 4 10 10 10h48c6 0 10-4 10-10zm-20 38H74v-28h28zm0 0M112 342H64c-6 0-10 4-10 10v48c0 6 4 10 10 10h48c6 0 10-4 10-10v-48c0-6-4-10-10-10zm-10 48H74v-28h28zm0 0M179 98h122a10 10 0 100-20H179a10 10 0 100 20zm0 0M179 194h122a10 10 0 100-20H179a10 10 0 100 20zm0 0"/></svg>