<svg xmlns="http://www.w3.org/2000/svg" viewBox="0 0 374 374"><path fill="#FFF" d="M338 159V98c0-27-20-37-38-37H72c-18 0-37 9-37 37v61c-18 2-35 14-35 41v47c0 8 6 15 14 15h5v37c0 8 7 14 15 14h13c8 0 15-6 15-14v-38h250v38c0 8 7 14 15 14h13c8 0 15-6 15-14v-38h5c8 0 14-6 14-14v-47c-1-27-18-39-36-41zM49 98h1c0-19 12-23 22-23h228c11 0 23 4 23 23v60h-11v-34c0-8-6-15-14-15h-88c-8 0-14 7-14 15v34h-17v-34c0-8-7-15-15-15H76c-8 0-14 7-14 15v34H49V98zm249 26v34h-88v-34h88zm-133 0v34H77v-34h88zM47 299H33v-38h14v38zm293 0h-14v-38h14v38zm18-52H14v-21h344v21zm0-35H14v-12c0-24 18-27 28-27h289c10 0 27 3 27 27v12z"/></svg>