<svg xmlns="http://www.w3.org/2000/svg" viewBox="0 0 432 432"><path fill="#FFF" d="M217 93a111 111 0 00-74 195c18 18 16 55 16 56 0 2 0 3 2 5l4 2h102l5-2 2-5c0-1-2-38 16-56l1-1a111 111 0 00-74-194zm64 185l-2 1c-15 17-18 45-18 58h-89c0-13-3-42-20-59a97 97 0 11129 0z"/><path fill="#FFF" d="M216 122c-3 0-7 3-7 6 0 4 4 7 7 7 41 0 73 33 73 73 0 4 3 7 7 7 3 0 7-3 7-7 0-48-39-86-87-86zM261 358h-89c-9 0-17 8-17 17s8 17 17 17h88a17 17 0 000-34zm0 20h-89c-2 0-3-1-3-3s1-3 3-3h88c2 0 3 1 3 3s-1 3-2 3zM247 399h-62c-9 0-17 7-17 17s8 16 17 16h62c10 0 17-7 17-16 0-10-7-17-17-17zm0 19h-62c-2 0-3-1-3-3s1-3 3-3h62c2 0 4 1 4 3s-2 3-4 3zM216 60c4 0 7-3 7-7V7c0-4-3-7-7-7-3 0-7 3-7 7v46c0 4 4 7 7 7zM329 34c-3-2-7-1-9 2l-25 38c-3 4-2 8 1 10l4 1c2 0 4-1 5-3l26-38c2-3 2-8-2-10zM135 84l4-2c3-2 4-6 2-9l-25-39c-2-3-7-4-10-2s-4 6-2 10l25 38c2 3 4 4 6 4zM87 126l-41-22c-3-2-7 0-9 3s-1 7 3 9l40 22 3 1c3 0 5-1 6-4 2-3 1-7-2-9zM396 107c-2-3-6-5-9-3l-41 22c-3 2-5 6-3 9 1 3 4 4 6 4l3-1 41-22c3-2 4-6 3-9z"/></svg>