<svg xmlns="http://www.w3.org/2000/svg" viewBox="0 -96 480 480"><path d="M472 272c-9 0-18-2-25-7a65 65 0 00-66 0c-15 9-35 9-50 0a65 65 0 00-66 0c-15 9-35 9-50 0-10-6-21-9-33-9s-23 3-33 9c-7 5-16 7-25 7s-18-2-25-7c-10-6-21-9-33-9s-23 3-33 9c-7 5-16 7-25 7a8 8 0 000 16c12 0 23-3 33-9 7-5 16-7 25-7s18 2 25 7c10 6 21 9 33 9s23-3 33-9c7-5 16-7 25-7s18 2 25 7c20 12 46 12 66 0 15-9 35-9 50 0 20 12 46 12 66 0 15-9 35-9 50 0 10 6 21 9 33 9a8 8 0 100-16zm0 0"/><path d="M0 248c0 4 4 8 8 8 12 0 23-3 33-9 7-5 16-7 25-7s18 2 25 7c10 6 21 9 33 9s23-3 33-9c7-5 16-7 25-7s18 2 25 7c20 12 46 12 66 0 7-5 16-7 25-7s18 2 25 7c20 12 46 12 66 0a45 45 0 0130-7c7 1 14 3 20 7 10 6 21 9 33 9a8 8 0 100-16c-9 0-18-2-25-7l-15-7 47-94a8 8 0 00-7-12h-40V8c0-4-4-8-8-8H136c-4 0-8 4-8 8v136h-16V24c0-4-4-8-8-8H40c-4 0-7 3-8 7l-15 97H8c-4 0-8 4-8 8v72l1 4 21 34-14 2c-4 0-8 4-8 8zm376-128l-5 2-30 22h-5v-32h80v8zm-136 24v-32h80v32zm-96-80h80v32h-80zm272 32h-80V64h80zm-96 0h-80V64h80zm96-48h-80V16h80zm-96 0h-80V16h80zM144 16h80v32h-80zm0 96h80v32h-80zM47 32h49v101l-10-11-6-2H33zM16 136h61l21 22 6 2h240l5-2 30-22h80l-44 88h-1c-12 0-23 3-33 9-15 9-35 9-50 0a65 65 0 00-66 0c-15 9-35 9-50 0-10-6-22-9-33-9-12 0-23 3-33 9-7 5-16 7-25 7s-18-2-25-7a60 60 0 00-39-9h-1a71 71 0 00-13 3l-3 1h-1l-2 2h-1l-3 1-20-33zm0 0"/><path d="M72 40h-8a8 8 0 000 16h8a8 8 0 100-16zm0 0M72 192h8a8 8 0 100-16h-8a8 8 0 000 16zm0 0M112 192h8a8 8 0 100-16h-8a8 8 0 000 16zm0 0M152 192h8a8 8 0 100-16h-8a8 8 0 000 16zm0 0M192 192h8a8 8 0 100-16h-8a8 8 0 000 16zm0 0M232 192h8a8 8 0 100-16h-8a8 8 0 000 16zm0 0M272 192h8a8 8 0 100-16h-8a8 8 0 000 16zm0 0M312 192h8a8 8 0 100-16h-8a8 8 0 000 16zm0 0M352 192h8a8 8 0 100-16h-8a8 8 0 000 16zm0 0M392 192h8a8 8 0 100-16h-8a8 8 0 000 16zm0 0"/></svg>