<svg xmlns="http://www.w3.org/2000/svg" viewBox="0 0 862.2 732.9"><linearGradient id="a" x1="1241.571" x2="1242.476" y1="-290.05" y2="-290.05" gradientTransform="rotate(-7.605 1833681.364 6007475.504) scale(653.3731)" gradientUnits="userSpaceOnUse"><stop offset="0" stop-color="#a1cdef"/><stop offset="1" stop-color="#3976c4"/></linearGradient><path fill="url(#a)" d="M470.3 433.5c.2-2 .5-3.9.7-5.9 1.3-11.2 2-22.4 2.5-33.6.4-10.7.4-21.3.1-32 13.3-3.3 26.4-7 39.4-11.2 30.1-9.6 59.3-21.4 87.6-34.8-22.1 52.9-68.6 97.4-130.3 117.5zm-7.1-163.4c12.1-3.5 24.1-7.4 35.9-11.7 38.7-13.9 75.9-31.7 110.7-52.6 6.7 27.6 6.3 55.6-.1 82.3-32.8 18.6-67 34.9-102.7 48.1-11.2 4.2-22.6 8-34.1 11.5-1.5-26.1-4.9-52-9.7-77.6zm-23-89.3c16.2-4.2 32.2-9.6 47.6-16.4 13.4-6 26.3-13.2 38.1-21.9 10.8-7.9 20.6-17 29.1-27.1 19.1 16.8 34.6 37.5 45.1 61.3-34.3 24-71.1 44.6-110.4 61.1-10.1 4.2-20.3 8.2-30.6 11.9-5.3-23.2-11.6-46.2-18.9-68.9zm-17.8-49.2c-8.2-20.8-17.2-41.2-26.9-61.3l-.9-1.8c54.9-6.9 108.3 7.5 148.8 37.7-7.5 9.9-16.3 18.9-26.2 26.8-10.6 8.4-22.3 15.7-34.8 21.9-14.3 7.1-29.4 12.8-45 17.6-4.6-13.8-9.6-27.4-15-40.9zm204.3 60C596.2 92.7 492.4 35.8 389.6 58.4c-8-15.9-16.4-31.7-25.5-47l-.4.2c6.3 16.2 12.7 32.3 18.9 48.5-3.4.9-6.8 1.8-10.2 2.9-31.2 9.6-58.6 25.8-81 46.4 19.1-14 41-25.2 65.3-32.6 9.8-3 19.7-5.3 29.6-7l1.5 3.9c7.8 20.7 15.3 41.5 22.4 62.4 4.5 13.4 8.8 26.9 13 40.5-7.1 1.9-14.2 3.6-21.3 5.1-28.1 6.1-56.8 10-85.7 13.2-28.8 3.1-57.8 5.4-86.8 7.8v.4c29.1-1.2 58.1-2.4 87.2-4.4 29-2 58.1-4.9 86.9-9.9 7.4-1.3 14.7-2.8 22.1-4.4 6.9 23.3 13.1 46.9 18.4 70.6-27.8 9.1-56.5 16.3-85.7 21.6-45.4 8.3-92 12.3-138.6 13.4-46.7 1.2-93.6-.3-140.4-2.6v.4c46.6 4.7 93.3 8.7 140.4 9.9 47 1.2 94.4-.2 141.4-6.3 29.3-3.8 58.4-9.4 87-17 5 25.5 8.9 51.3 11.1 77.2-20.9 5.8-42.2 10.4-63.8 13.7-38.3 5.9-77.5 7.8-116.5 6.1-39.1-1.6-78-6.6-116.6-13.3l-.1.4c38.2 8.3 77 15 116.3 18.3 39.3 3.4 79.1 3.2 118.6-1.1 21.3-2.3 42.4-5.9 63.2-10.6.6 9.6 1 19.1 1.2 28.7.3 14.2 0 28.4-.9 42.6-32.5 9-65.2 10.1-95.8 4.7 29.9 9.3 62.3 11.9 95 6.7-2.2 25.9-6.3 51.7-12.4 77.2l.4.1c8.2-20.7 14.2-42.4 18.4-64.4 1-4.8 1.8-9.7 2.5-14.6 6.8-1.4 13.6-3.1 20.3-5.2 108.1-33.2 169.8-144.8 137.7-249.3"/><g><linearGradient id="b" x1="39.257" x2="117.457" y1="-40.672" y2="94.773" gradientTransform="matrix(1 0 0 -1 0 678.725)" gradientUnits="userSpaceOnUse"><stop offset="0" stop-color="#a1cdef"/><stop offset="0" stop-color="#3976c4"/><stop offset=".791" stop-color="#3976c4"/><stop offset=".795" stop-color="#3976c4"/></linearGradient><path fill="url(#b)" d="M147.9 682.2v.4c0 4.8-.9 9.4-2.7 13.6-1.8 4.2-4.3 7.9-7.4 11.1-3.2 3.2-6.8 5.6-11.1 7.4-4.2 1.8-8.7 2.7-13.6 2.7H45.3c-4.8 0-9.4-.9-13.6-2.7-4.2-1.8-7.9-4.3-11.1-7.4-3.2-3.2-5.6-6.8-7.4-11.1-1.8-4.2-2.7-8.7-2.7-13.6v-64.7c0-4.8.9-9.4 2.7-13.6 1.8-4.2 4.3-7.9 7.4-11.1 3.2-3.2 6.8-5.6 11.1-7.4 4.2-1.8 8.7-2.7 13.6-2.7h61.3c4.8 0 9.4.9 13.6 2.7s7.9 4.3 11.1 7.4c3.2 3.2 5.6 6.8 7.4 11.1 1.8 4.2 2.7 8.7 2.7 13.6v.2h-12.8c0-3.2-.6-6.3-1.9-9.1-1.2-2.8-2.9-5.3-5-7.4-2.1-2.1-4.6-3.8-7.3-5-2.8-1.2-5.8-1.9-9-1.9H46.7c-3.2 0-6.3.6-9.1 1.9-2.9 1.2-5.3 2.9-7.4 5-2.1 2.1-3.8 4.6-5 7.4-1.2 2.9-1.9 5.9-1.9 9.1v64.3c0 3.2.6 6.3 1.9 9.1 1.2 2.9 2.9 5.3 5 7.4 2.1 2.1 4.6 3.8 7.4 5 2.8 1.2 5.9 1.9 9.1 1.9h65.1c3.2 0 6.3-.6 9.1-1.9 2.8-1.2 5.3-2.9 7.4-5 2.1-2.1 3.7-4.6 4.9-7.4 1.2-2.8 1.8-5.9 1.8-9.1v-6.5c0-3.2-.6-6.2-1.9-9-1.2-2.8-2.9-5.3-5-7.4-2.1-2.2-4.6-3.9-7.3-5.1-2.8-1.2-5.8-1.9-9-1.9H65.5v-11.3h47.6c4.8 0 9.4.9 13.6 2.7 4.2 1.8 7.9 4.3 11.1 7.4 3.2 3.2 5.6 6.8 7.4 11s2.7 8.6 2.7 13.5v6.4z"/><linearGradient id="c" x1="173.704" x2="228.674" y1="-30.323" y2="64.89" gradientTransform="matrix(1 0 0 -1 0 678.725)" gradientUnits="userSpaceOnUse"><stop offset="0" stop-color="#a1cdef"/><stop offset="0" stop-color="#3976c4"/><stop offset=".791" stop-color="#3976c4"/><stop offset=".795" stop-color="#3976c4"/></linearGradient><path fill="url(#c)" d="M252.7 705.8v11.5h-55.2c-4.8 0-9.4-.9-13.6-2.7s-7.9-4.3-11.1-7.4c-3.2-3.2-5.6-6.8-7.4-11.1-1.8-4.2-2.7-8.7-2.7-13.6v-99.4h12.8v99.3c0 3.2.6 6.3 1.9 9.1 1.2 2.9 2.9 5.3 5 7.4 2.1 2.1 4.6 3.8 7.3 5 2.8 1.2 5.8 1.9 9 1.9h54z"/><linearGradient id="d" x1="296.263" x2="376.057" y1="-40.662" y2="97.544" gradientTransform="matrix(1 0 0 -1 0 678.725)" gradientUnits="userSpaceOnUse"><stop offset="0" stop-color="#a1cdef"/><stop offset="0" stop-color="#3976c4"/><stop offset=".791" stop-color="#3976c4"/><stop offset=".795" stop-color="#3976c4"/></linearGradient><path fill="url(#d)" d="M370 583.1c4.8 0 9.4.9 13.6 2.7 4.2 1.8 7.9 4.3 11.1 7.4 3.2 3.2 5.6 6.8 7.4 11.1 1.8 4.2 2.7 8.7 2.7 13.6v64.7c0 4.8-.9 9.4-2.7 13.6-1.8 4.2-4.3 7.9-7.4 11.1-3.2 3.2-6.8 5.6-11.1 7.4-4.2 1.8-8.7 2.7-13.6 2.7h-67.8c-4.8 0-9.3-.9-13.5-2.7s-7.8-4.3-11-7.4c-3.2-3.2-5.6-6.8-7.4-11.1-1.8-4.2-2.7-8.7-2.7-13.6v-64.7c0-4.8.9-9.4 2.7-13.6 1.8-4.2 4.3-7.9 7.4-11.1 3.2-3.2 6.8-5.6 11-7.4 4.1-1.8 8.6-2.7 13.5-2.7H370zm22.1 35c0-3.2-.6-6.3-1.9-9.1-1.2-2.8-2.9-5.3-5-7.4-2.1-2.1-4.6-3.8-7.4-5-2.9-1.2-5.9-1.9-9.1-1.9h-65.2c-3.2 0-6.2.6-9 1.9-2.8 1.2-5.2 2.9-7.3 5-2.1 2.1-3.8 4.6-5 7.4-1.2 2.9-1.9 5.9-1.9 9.1v64.3c0 3.2.6 6.3 1.9 9.1 1.2 2.9 2.9 5.3 5 7.4 2.1 2.1 4.6 3.8 7.3 5 2.8 1.2 5.8 1.9 9 1.9h65.2c3.2 0 6.3-.6 9.1-1.9 2.8-1.2 5.3-2.9 7.4-5 2.1-2.1 3.8-4.6 5-7.4 1.2-2.8 1.9-5.9 1.9-9.1v-64.3z"/><linearGradient id="e" x1="448.283" x2="524.927" y1="-40.554" y2="92.197" gradientTransform="matrix(1 0 0 -1 0 678.725)" gradientUnits="userSpaceOnUse"><stop offset="0" stop-color="#a1cdef"/><stop offset="0" stop-color="#3976c4"/><stop offset=".791" stop-color="#3976c4"/><stop offset=".795" stop-color="#3976c4"/></linearGradient><path fill="url(#e)" d="M533.3 643c6.9 2.4 12.6 6.5 16.9 12.4 4.3 5.9 6.5 12.7 6.5 20.4v6.9c0 4.8-.9 9.4-2.7 13.6-1.8 4.2-4.3 7.9-7.4 11.1-3.2 3.2-6.8 5.6-11 7.4-4.2 1.8-8.6 2.7-13.5 2.7h-67.8c-4.8 0-9.4-.9-13.6-2.7-4.2-1.8-7.9-4.3-11.1-7.4-3.2-3.2-5.6-6.8-7.4-11.1-1.8-4.2-2.7-8.7-2.7-13.6V618c0-4.8.9-9.4 2.7-13.6 1.8-4.2 4.3-7.9 7.4-11.1 3.2-3.2 6.8-5.6 11.1-7.4 4.2-1.8 8.7-2.7 13.6-2.7h55.2c4.8 0 9.3.9 13.5 2.7s7.8 4.3 11 7.4c3.2 3.2 5.6 6.8 7.4 11.1 1.8 4.2 2.7 8.7 2.7 13.6 0 5-1 9.6-2.9 13.8-1.9 4.2-4.5 7.9-7.9 11.2zm-25.2-2.1c3.2 0 6.3-.6 9.1-1.8s5.3-2.8 7.4-4.9c2.1-2.1 3.8-4.6 5-7.3 1.2-2.8 1.9-5.8 1.9-9s-.6-6.2-1.9-9c-1.2-2.8-2.9-5.2-5-7.3s-4.6-3.8-7.4-5c-2.9-1.2-5.9-1.9-9.1-1.9h-52.4c-3.2 0-6.2.6-9 1.9-2.8 1.2-5.3 2.9-7.4 5-2.2 2.1-3.9 4.6-5.1 7.3-1.2 2.8-1.9 5.8-1.9 9v23h75.8zm-75.9 41.6c0 3.2.6 6.2 1.9 9 1.2 2.8 2.9 5.2 5.1 7.3 2.2 2.1 4.6 3.8 7.4 5 2.8 1.2 5.8 1.9 9 1.9h65.2c3.2 0 6.2-.6 9-1.9 2.8-1.2 5.2-2.9 7.3-5s3.8-4.6 5-7.3c1.2-2.8 1.9-5.8 1.9-9v-6.9c0-3.2-.6-6.2-1.9-9-1.2-2.8-2.9-5.2-5-7.3s-4.6-3.8-7.3-5c-2.8-1.2-5.8-1.9-9-1.9h-88.7l.1 30.1z"/><linearGradient id="f" x1="592.188" x2="676.491" y1="-35.958" y2="110.06" gradientTransform="matrix(1 0 0 -1 0 678.725)" gradientUnits="userSpaceOnUse"><stop offset="0" stop-color="#a1cdef"/><stop offset="0" stop-color="#3976c4"/><stop offset=".791" stop-color="#3976c4"/><stop offset=".795" stop-color="#3976c4"/></linearGradient><path fill="url(#f)" d="M689.3 583.3h12.6v99.2c0 4.8-.9 9.4-2.7 13.6-1.8 4.2-4.3 7.9-7.4 11.1-3.2 3.2-6.8 5.6-11.1 7.4-4.2 1.8-8.7 2.7-13.6 2.7h-61c-4.8 0-9.3-.9-13.5-2.7s-7.8-4.3-11-7.4c-3.2-3.2-5.6-6.8-7.4-11.1-1.8-4.2-2.7-8.7-2.7-13.6V583.3h12.6v99.3-.2c0 3.2.6 6.3 1.9 9.1 1.2 2.9 2.9 5.3 5 7.4 2.1 2.1 4.6 3.8 7.4 5 2.8 1.2 5.9 1.9 9.1 1.9h58.2c3.2 0 6.2-.6 9-1.9 2.8-1.2 5.3-2.9 7.4-5 2.2-2.1 3.9-4.6 5.1-7.4 1.2-2.8 1.9-5.9 1.9-9.1v-99.1h.2z"/><linearGradient id="g" x1="741.779" x2="829.159" y1="-47.216" y2="104.131" gradientTransform="matrix(1 0 0 -1 0 678.725)" gradientUnits="userSpaceOnUse"><stop offset="0" stop-color="#a1cdef"/><stop offset="0" stop-color="#3976c4"/><stop offset=".791" stop-color="#3976c4"/><stop offset=".795" stop-color="#3976c4"/></linearGradient><path fill="url(#g)" d="M844.3 583.3v11.5h-92.7c-3.1.3-6 1-8.6 2.2-2.7 1.2-5 2.9-7 4.9s-3.5 4.4-4.6 7.2c-1.1 2.7-1.7 5.6-1.7 8.7 0 3.1.6 6 1.7 8.7 1.1 2.7 2.7 5.1 4.6 7.2 2 2.1 4.3 3.8 7 5.1s5.5 2 8.6 2.1h67.8c4.8 0 9.4.9 13.6 2.7 4.2 1.8 7.9 4.3 11.1 7.4 3.2 3.2 5.6 6.8 7.4 11 1.8 4.2 2.7 8.6 2.7 13.5v7.1c0 4.8-.9 9.3-2.7 13.5s-4.3 7.8-7.4 11c-3.2 3.2-6.8 5.6-11.1 7.4-4.2 1.8-8.7 2.7-13.6 2.7h-92.7v-11.3h92.7c3.1-.1 6-.8 8.6-2.1 2.7-1.3 5-3 7-5.1s3.6-4.5 4.7-7.2c1.2-2.7 1.8-5.6 1.8-8.7v-7.1c0-3.1-.6-6-1.8-8.7s-2.8-5.1-4.7-7.2c-2-2-4.3-3.7-7-4.9s-5.5-2-8.6-2.2h-67.8c-4.8 0-9.4-.9-13.6-2.7-4.2-1.8-7.9-4.3-11.1-7.4-3.2-3.2-5.6-6.8-7.4-11.1-1.8-4.2-2.7-8.7-2.7-13.6 0-4.8.9-9.3 2.7-13.5s4.3-7.8 7.4-11c3.2-3.2 6.8-5.6 11.1-7.4 4.2-1.8 8.7-2.7 13.6-2.7h92.7z"/></g></svg>