<svg xmlns="http://www.w3.org/2000/svg" viewBox="0 0 982.6 908.1"><linearGradient id="a" x1="2501.552" x2="2503.152" y1="-505.139" y2="-505.139" gradientTransform="scale(653.373 -653.373) rotate(7.605 -2543.303 -19072.014)" gradientUnits="userSpaceOnUse"><stop offset="0" stop-color="#a1cdef"/><stop offset="1" stop-color="#3976c4"/></linearGradient><path fill="url(#a)" d="M691.2 746c.4-3.5.9-7 1.3-10.5 2.3-19.7 3.6-39.5 4.3-59.4.7-18.8.7-37.7.1-56.5 23.5-5.8 46.7-12.4 69.7-19.8 53.1-17 104.8-37.9 154.8-61.6C882.5 632 800.3 710.5 691.2 746zm-12.6-288.7c21.4-6.2 42.5-13.1 63.4-20.6 68.4-24.5 134.1-56.1 195.7-93 11.8 48.8 11.1 98.3-.2 145.4-58 32.8-118.3 61.7-181.4 84.9-19.9 7.3-40 14.1-60.3 20.2-2.7-45.9-8.6-91.7-17.2-136.9zm-40.7-157.8c28.7-7.5 56.9-16.9 84-29 23.7-10.6 46.5-23.4 67.3-38.7 19-13.9 36.4-30.1 51.3-47.8 33.8 29.7 61.2 66.2 79.8 108.4-60.6 42.4-125.7 78.8-195.1 108-17.8 7.5-35.8 14.5-54.1 21-9-41.2-20.2-81.9-33.2-121.9zm-31.3-87c-14.5-36.7-30.4-72.8-47.6-108.3-.5-1.1-1-2.1-1.6-3.2 97.1-12.2 191.5 13.2 263 66.6-13.2 17.5-28.8 33.3-46.3 47.4-18.7 14.9-39.5 27.8-61.5 38.7-25.3 12.5-52 22.7-79.6 31-8.1-24.2-17-48.3-26.4-72.2zm360.9 106.1c-53.8-174.8-237.2-275.4-419-235.4-14.2-28.2-29-56-45.1-83.1l-.6.3C513.9 29 525.3 57.5 536.2 86c-6 1.5-12 3.2-18 5.1-55.2 17-103.6 45.6-143.1 82 33.8-24.7 72.5-44.5 115.3-57.7 17.4-5.4 34.9-9.4 52.3-12.3.9 2.3 1.8 4.6 2.6 6.9 13.8 36.6 27.1 73.4 39.6 110.4 8 23.7 15.6 47.6 22.9 71.5-12.5 3.3-25.1 6.3-37.7 9-49.7 10.7-100.5 17.7-151.4 23.3-51 5.5-102.2 9.6-153.4 13.7v.7c51.4-2.1 102.7-4.2 154.1-7.7 51.3-3.6 102.7-8.6 153.6-17.5 13-2.3 26-4.9 39-7.7 12.2 41.3 23.2 82.8 32.5 124.7-49.2 16.1-99.9 28.8-151.4 38.2-80.3 14.7-162.5 21.7-245 23.7-82.5 2.1-165.3-.6-248.1-4.6v.8c82.3 8.4 165 15.3 248.1 17.5 83.1 2.2 166.8-.4 249.8-11.2 51.8-6.7 103.3-16.6 153.8-30 8.9 45.1 15.7 90.7 19.6 136.5-37 10.2-74.6 18.3-112.8 24.2-67.7 10.5-136.9 13.7-205.9 10.8-69.1-2.8-137.9-11.7-206.1-23.4l-.2.7C214 628.2 282.5 640.1 352 646c69.4 5.9 139.8 5.7 209.5-2 37.6-4.1 74.9-10.4 111.7-18.7 1.1 16.9 1.8 33.8 2.1 50.7.5 25.1 0 50.2-1.5 75.3-57.4 15.8-115.2 17.9-169.3 8.3 52.8 16.5 110.1 21.1 167.9 11.9-3.8 45.7-11.1 91.3-22 136.4l.7.2c14.5-36.6 25.1-74.9 32.6-113.7 1.7-8.6 3.1-17.2 4.4-25.8 12-2.4 24-5.4 36-9.1 191.2-59 300.3-256.4 243.4-440.9"/></svg>