<svg xmlns="http://www.w3.org/2000/svg" viewBox="0 0 512 512"><path fill="#FFF" d="M486 273h-8V94c0-43-34-77-77-77-38 0-65 28-68 69-20 4-34 21-34 42 0 5 3 9 8 9h68c6 0 9-4 9-9 0-21-14-38-34-42 3-27 19-52 51-52 33 0 60 27 60 60v179H204c-4-20-21-34-42-34a42 42 0 00-72 6c-6-4-14-6-22-6-21 0-38 14-42 34-15 0-26 11-26 26 0 14 11 25 26 25h10l23 92c7 26 31 45 58 45h7l-11 22c-3 4-1 9 3 11l3 1c4 0 6-2 8-4l15-30h237l14 29c2 3 5 5 8 5 2 0 3 0 3-2 4-1 6-7 4-11l-11-21c27-1 49-20 56-45l23-92h10c15 0 26-11 26-25 0-15-11-26-26-26zM366 119h-49c4-10 14-17 25-17s21 7 24 17zM68 256c8 0 15 3 21 9 1 3 5 4 8 3s5-3 6-7c3-13 13-22 26-22 9 0 18 4 22 13 2 3 6 5 9 4h3c11 0 20 7 24 17H44c4-10 13-17 24-17zm370 155c-5 19-22 33-42 33H118c-20 0-37-14-42-33l-22-87h404l-20 87zm48-104H26c-6 0-9-3-9-8s3-9 9-9h460c6 0 9 4 9 9s-3 8-9 8z"/><path fill="#FFF" d="M307 175c5 0 9-3 9-9v-4c0-5-4-8-9-8s-8 3-8 8v4c0 6 3 9 8 9zM307 214c5 0 9-4 9-8v-10c0-5-4-8-9-8s-8 3-8 8v10c0 5 3 8 8 8zM307 247c5 0 9-3 9-8v-4c0-5-4-9-9-9s-8 4-8 9v4c0 5 3 8 8 8zM341 175c5 0 9-3 9-9v-4c0-5-4-8-9-8s-8 3-8 8v4c0 6 3 9 8 9zM333 206c0 5 3 8 8 8s9-4 9-8v-10c0-5-4-8-9-8s-8 3-8 8v10zM333 239c0 5 3 8 8 8s9-3 9-8v-4c0-5-4-9-9-9s-8 4-8 9v4zM375 175c6 0 9-3 9-9v-4c0-5-3-8-9-8s-8 3-8 8v4c0 6 3 9 8 9zM367 206c0 5 3 8 8 8s9-4 9-8v-10c0-5-3-8-9-8s-8 3-8 8v10zM367 239c0 5 3 8 8 8s9-3 9-8v-4c0-5-3-9-9-9s-8 4-8 9v4z"/></svg>