<svg xmlns="http://www.w3.org/2000/svg" viewBox="0 0 512 512"><path fill="#FFF" d="M399 400c13-13 34-13 48 0 7 7 10 16 10 24s-3 17-10 24a33 33 0 01-48 0 33 33 0 010-48zm37 36c7-7 7-17 0-24s-17-7-24 0c-3 4-5 8-5 12s2 9 5 12c7 7 17 7 24 0z"/><path fill="#FFF" d="M410 506L256 353l-61 60-35 36-52 52a38 38 0 01-53 0l-44-44c-7-6-11-16-11-26s4-20 11-26l52-52 36-36 61-61L8 104C-2 95-2 78 8 68L68 8C78-2 94-2 104 8l18 18 49 48 47 48 38 38L393 23c1-3 3-4 6-5L502 0c3 0 6 1 7 3 2 1 3 3 3 6v1l-18 99v2l-2 6-140 139 12 11 23 24 119 119c4 4 6 9 6 14s-2 10-6 14l-68 68c-8 8-21 8-28 0zm63-395l-30-30-283 284 29 29 284-283zM23 417c-8 7-8 21 0 29l44 43c7 8 21 8 29 0l46-46-73-73-46 47zm58-58l36 36 37 36 23-24-72-72-24 24zm156-195l-19 19c-3 3-8 3-11 0s-4-9 0-12l18-19-13-12-29 30c-4 3-9 3-12 0s-4-9 0-12l30-30-12-12-18 18c-4 3-9 3-12 0s-4-8 0-12l18-18-12-12-30 30c-4 4-9 4-12 0s-4-8 0-12l30-30-13-12-18 17c-3 4-9 4-12 0s-3-8 0-12l18-17-12-12-30 29c-3 4-8 4-12 0s-3-8 0-11l30-30-12-12c-3-4-8-4-12 0L20 80l-3 6c0 2 1 5 3 6l152 152 72-72-7-8zM118 323l30 30L431 69l-30-30-283 284zM418 33l28 28 3 1 31 31 12-73-74 13zm8 461l68-68v-4l-88-89-31 31c-3 3-8 3-11 0-4-4-4-9 0-12l30-31-13-12-17 18c-4 3-9 3-12 0-4-3-4-9 0-12l17-18-11-12-30 30c-4 3-9 3-12 0-4-3-4-9 0-12l30-30-6-5-72 73 154 153h4z"/></svg>