<svg xmlns="http://www.w3.org/2000/svg" viewBox="0 0 350 244" enable-background="new 0 0 350 244"><defs><filter id="a" filterUnits="userSpaceOnUse" x="-2" y="-2" width="354" height="251.8"><feColorMatrix values="1 0 0 0 0 0 1 0 0 0 0 0 1 0 0 0 0 0 1 0"/></filter></defs><mask maskUnits="userSpaceOnUse" x="-2" y="-2" width="354" height="251.8" id="b"><path d="M4 0a4 4 0 00-4 4v206a4 4 0 004 4h35v30l23.6-30H346a4 4 0 004-4V4a4 4 0 00-4-4H4z" fill-rule="evenodd" clip-rule="evenodd" fill="#fff" filter="url(#a)"/></mask><path d="M39 214h2v-2h-2v2zm0 30h-2v5.8l3.6-4.5L39 244zm23.6-30v-2h-1l-.6.8 1.6 1.2zM2 4c0-1.1.9-2 2-2v-4a6 6 0 00-6 6h4zm0 206V4h-4v206h4zm2 2a2 2 0 01-2-2h-4a6 6 0 006 6v-4zm35 0H4v4h35v-4zm2 32v-30h-4v30h4zm20-31.2l-23.6 30 3.1 2.5 23.6-30-3.1-2.5zm285-.8H62.6v4H346v-4zm2-2a2 2 0 01-2 2v4a6 6 0 006-6h-4zm0-206v206h4V4h-4zm-2-2a2 2 0 012 2h4a6 6 0 00-6-6v4zM4 2h342v-4H4v4z" mask="url(#b)" fill="#cbcbcb"/></svg>