<svg xmlns="http://www.w3.org/2000/svg" viewBox="0 0 512 512"><path d="M430.82 145.4c-3.95-6.06-7.68-11.78-9.4-17.06-1.84-5.68-2.23-12.76-2.65-20.25-.68-12.3-1.45-26.25-9.53-37.35-8.16-11.2-21.24-16.25-32.79-20.7-6.94-2.68-13.5-5.2-18.23-8.65-4.63-3.37-9-8.77-13.62-14.49-7.82-9.68-16.7-20.66-30.06-25-12.84-4.17-26.22-.63-38.03 2.5-7.38 1.95-14.34 3.8-20.51 3.8-6.17 0-13.14-1.85-20.51-3.8-11.81-3.13-25.2-6.67-38.04-2.5-13.36 4.34-22.23 15.32-30.06 25-4.62 5.72-8.99 11.13-13.61 14.5-4.73 3.43-11.29 5.96-18.23 8.64-11.55 4.45-24.64 9.5-32.8 20.7-8.07 11.1-8.85 25.05-9.53 37.35-.41 7.5-.8 14.57-2.65 20.25-1.71 5.28-5.45 11-9.4 17.07-6.83 10.5-14.58 22.39-14.58 36.68s7.75 26.18 14.58 36.68c3.95 6.06 7.68 11.79 9.4 17.07 1.84 5.68 2.24 12.75 2.65 20.24.69 12.3 1.46 26.26 9.54 37.36 7.83 10.76 20.21 15.84 31.41 20.17v154.06a11.08 11.08 0 0015.2 10.29l51.22-20.52 44.4 17.74v25.74a11.08 11.08 0 0015.2 10.28l51.22-20.51 51.22 20.51a11.08 11.08 0 0015.2-10.28V313.6c11.2-4.33 23.58-9.4 31.41-20.17 8.08-11.1 8.85-25.05 9.54-37.36.41-7.5.8-14.57 2.65-20.24 1.71-5.28 5.45-11.01 9.4-17.07 6.83-10.5 14.58-22.4 14.58-36.68 0-14.3-7.75-26.19-14.59-36.69zM245 451.32l-40.3-16.1a11.06 11.06 0 00-8.22.01l-40.14 16.07V324.9l.55.48.56.52c.38.36.75.74 1.13 1.12l.43.43c.5.53 1.02 1.08 1.53 1.65.13.13.25.28.37.42a103.63 103.63 0 013.37 3.93l1.13 1.38.43.53 1.56 1.92c5.38 6.66 11.26 13.93 18.75 19.23 1.1.79 2.26 1.51 3.44 2.2V373a11.08 11.08 0 1022.16 0v-8.85c.4 0 .8-.03 1.2-.05l.88-.06c.84-.05 1.68-.13 2.51-.22l.42-.04c.97-.11 1.94-.25 2.9-.4l.82-.13a91.2 91.2 0 002.16-.39l.87-.17 2.51-.53.33-.07c.93-.21 1.86-.43 2.78-.66l.97-.24 1.88-.48 1.06-.27 1.67-.44.8-.21 2.63-.7.41-.1a248 248 0 012.13-.55l.78-.2a145.07 145.07 0 012.64-.62l.9-.2v93.9zm110.67 33.23l-40.13-16.07a11.07 11.07 0 00-8.24 0l-40.13 16.07V357.45l.4.09c1.34.3 2.7.62 4.07.97l.6.15 4.28 1.12c7.48 1.98 15.6 4.12 23.82 4.37v44.3a11.08 11.08 0 1022.16 0v-49.79c9.13-5.36 15.95-13.77 22.11-21.39l1.54-1.9.47-.57 1.12-1.36.57-.69a155.39 155.39 0 012.8-3.26l.36-.4c.51-.56 1.03-1.12 1.54-1.65l.42-.42 1.14-1.13.56-.52.54-.49v159.66zm56.6-277.87c-4.57 7-9.3 14.25-11.91 22.32-2.74 8.42-3.23 17.29-3.7 25.86-.57 10.15-1.1 19.73-5.33 25.55-4.31 5.92-13.31 9.39-22.84 13.06a349.04 349.04 0 00-9.45 3.8l-1.97.87-.71.32c-.86.4-1.72.81-2.58 1.25l-.77.4a75.88 75.88 0 00-4.5 2.55l-.86.53c-.83.54-1.66 1.1-2.47 1.68-6.98 5.09-12.49 11.9-17.8 18.48-2.43 3-4.8 5.93-7.2 8.55-3.99 4.37-8.04 7.86-12.48 9.3-2.9.94-6.29 1-10 .57-4.76-.57-10.05-1.97-15.52-3.41-5.24-1.39-10.59-2.8-16.06-3.67h-.01a77.4 77.4 0 00-2.73-.38l-.59-.08c-.79-.09-1.59-.15-2.39-.21l-.95-.08c-.73-.05-1.45-.06-2.18-.07-.29-.01-.57-.03-.86-.03l-.12-.01H256c-9.06 0-17.76 2.3-26.18 4.53-3.04.8-6.02 1.6-8.89 2.23-4.02.9-7.8 1.5-11.21 1.44a18.6 18.6 0 01-5.42-.83c-6.22-2.02-11.67-8.05-17.26-14.89a598.6 598.6 0 01-4.42-5.44c-1.95-2.4-3.95-4.78-6.05-7.07-.8-.88-1.61-1.74-2.45-2.59a53.53 53.53 0 00-9.77-8.02l-.86-.53a61.13 61.13 0 00-4.5-2.56l-.77-.4c-.86-.43-1.72-.85-2.58-1.24l-.7-.32a107.98 107.98 0 00-4.74-2.04c-2.23-.91-4.47-1.78-6.69-2.64-9.53-3.67-18.53-7.14-22.84-13.06-4.23-5.81-4.76-15.4-5.32-25.54-.48-8.57-.97-17.44-3.7-25.86-2.63-8.07-7.34-15.32-11.91-22.32-5.65-8.68-11-16.88-11-24.59 0-7.7 5.35-15.9 11-24.58 4.57-7 9.28-14.25 11.9-22.32 2.74-8.42 3.23-17.29 3.7-25.86.57-10.15 1.1-19.73 5.34-25.54 4.3-5.92 13.3-9.4 22.83-13.07 7.98-3.07 16.22-6.25 23.3-11.4 7-5.09 12.5-11.9 17.82-18.48 6.46-8 12.56-15.55 19.67-17.85 1.8-.59 3.77-.83 5.9-.83 5.73 0 12.53 1.8 19.62 3.67 8.42 2.23 17.12 4.53 26.18 4.53 9.05 0 17.75-2.3 26.17-4.53 9.72-2.57 18.9-5 25.53-2.84 7.1 2.3 13.2 9.86 19.67 17.85 5.32 6.59 10.82 13.4 17.8 18.48 7.09 5.15 15.33 8.33 23.3 11.4 9.54 3.68 18.54 7.15 22.85 13.07 4.23 5.81 4.76 15.4 5.32 25.54.48 8.57.97 17.44 3.7 25.86 2.63 8.07 7.35 15.32 11.9 22.32 5.66 8.68 11 16.88 11 24.58 0 7.72-5.34 15.91-10.99 24.59z"/><path d="M256 47.68c-74.11 0-134.4 60.3-134.4 134.4S181.88 316.5 256 316.5s134.4-60.3 134.4-134.41S330.11 47.69 256 47.69zm0 246.65c-61.9 0-112.24-50.35-112.24-112.24S194.1 69.84 256 69.84 368.24 120.2 368.24 182.1 317.89 294.33 256 294.33z"/><path d="M339.54 162.27a11.08 11.08 0 00-7.38-7.2l-42.11-12.51-24.92-36.19a11.08 11.08 0 00-18.26 0l-24.92 36.19-42.11 12.51a11.09 11.09 0 00-5.65 17.37l26.72 34.88-1.1 43.92a11.08 11.08 0 0014.76 10.73L256 247.34l41.43 14.63a11.1 11.1 0 0014.77-10.73l-1.11-43.92 26.71-34.89c2.22-2.9 2.87-6.7 1.74-10.16zm-48.43 34.68a11.09 11.09 0 00-2.28 7.02l.8 31.74-29.94-10.57a11.09 11.09 0 00-7.38 0l-29.95 10.57.8-31.75c.07-2.53-.74-5-2.28-7.01l-19.3-25.22L232 162.7a11.08 11.08 0 005.97-4.34L256 132.19l18.02 26.16a11.09 11.09 0 005.97 4.34l30.44 9.04-19.3 25.22zM319.25 437.2a11.3 11.3 0 00-3.6-2.41 11.2 11.2 0 00-6.4-.64 11.2 11.2 0 00-7.05 4.73 11.26 11.26 0 00-1.87 6.15 10.92 10.92 0 00.85 4.23 10.92 10.92 0 006 6 10.92 10.92 0 0012.07-2.4 10.59 10.59 0 002.39-3.6 10.92 10.92 0 00-2.4-12.07zM211.53 407.4a10.79 10.79 0 00-1.66-3.99 11.2 11.2 0 00-11.37-4.72 11.23 11.23 0 00-8.7 8.71 10.92 10.92 0 003.03 10 10.59 10.59 0 003.6 2.4 10.92 10.92 0 0012.07-2.4 10.59 10.59 0 002.4-3.6c.27-.67.5-1.37.62-2.08a10.92 10.92 0 000-4.32z"/></svg>