<svg xmlns="http://www.w3.org/2000/svg" viewBox="0 0 512 512"><path fill="#FFF" d="M491 153c-14-31-34-59-58-82a8 8 0 10-12 11 240 240 0 11-31-25 8 8 0 0010-13A255 255 0 0075 75a254 254 0 000 362 254 254 0 00362 0 254 254 0 0054-284z"/><path fill="#FFF" d="M372 109l-154 71a8 8 0 007 15l95-44-46 37-106 86-58-25 81-38a8 8 0 00-7-15l-87 41a13 13 0 000 23l65 29 19 114c1 7 10 9 14 3l54-82 102 47c8 4 18-2 18-11l15-244c0-6-7-10-12-7zM190 361l-12-74 126-103-97 109-2 3-15 65zm17-2l12-50 15 8-27 42zm36-56l-17-8 84-93-12 18-55 83zm111 52l-96-45 108-165-12 210z"/></svg>