<svg xmlns="http://www.w3.org/2000/svg" viewBox="0 0 128 128"><path fill="#007BF1" d="M39 43.6h41a1.8 1.8 0 001.8-1.7V24.2a1.8 1.8 0 00-1.7-1.8H39a1.8 1.8 0 00-1.8 1.8v17.7a1.8 1.8 0 001.8 1.7zM40.9 26h37.5v14.2H40.8z"/><path fill="#007BF1" d="M121.5 32a1.8 1.8 0 001.8-1.8v-12a1.8 1.8 0 00-1.8-1.8h-7.1V6.5a1.8 1.8 0 00-1.8-1.8H6.6a1.8 1.8 0 00-1.8 1.8v115a1.8 1.8 0 001.8 1.8h106.2a1.8 1.8 0 001.7-1.8V67.9h7.1a1.8 1.8 0 001.8-1.7v-12a1.8 1.8 0 00-1.8-1.8h-7.1V50h7.1a1.8 1.8 0 001.8-1.7v-12a1.8 1.8 0 00-1.8-1.8h-7.1V32zm-1.8-12v8.4h-5.3V20zm-8.8 99.8H8.2V8.3H111zm8.8-63.9v8.5h-5.3V56zm0-18v8.5h-5.3V38z"/><path fill="#007BF1" d="M88.3 81.6H30.8a1.8 1.8 0 000 3.5h57.5a1.8 1.8 0 000-3.5zM88.3 92.3H30.8a1.8 1.8 0 000 3.5h57.5a1.8 1.8 0 000-3.5zM88.3 103H30.8a1.8 1.8 0 100 3.4h57.5a1.8 1.8 0 000-3.5zM12.5 10.8a1.8 1.8 0 00-1.8 1.7V33a1.8 1.8 0 003.6 0V12.5a1.8 1.8 0 00-1.8-1.8z"/></svg>