<svg xmlns="http://www.w3.org/2000/svg" viewBox="0 0 442 442"><path fill="#007BF1" d="M221 341c-50 0-103-19-155-56-38-27-62-55-63-56-4-4-4-11 0-16 1-1 25-29 63-56 52-37 105-56 155-56s103 19 155 56c38 27 62 55 63 56 4 5 4 12 0 16-1 1-25 29-63 56-52 37-105 56-155 56zM30 221c9 10 27 27 51 44 33 23 84 51 140 51s107-28 140-51c24-17 42-34 51-44-9-10-27-27-51-44-33-23-84-51-140-51s-107 28-140 51c-24 17-42 34-51 44z"/><path fill="#007BF1" d="M221 299a78 78 0 1151-136 12 12 0 11-16 19 52 52 0 1018 39 13 13 0 0125 0c0 43-35 78-78 78z"/><path fill="#007BF1" d="M221 246a25 25 0 110-50 25 25 0 010 50z"/></svg>