<svg xmlns="http://www.w3.org/2000/svg" viewBox="0 0 512 512"><path fill="#FFF" d="M489 336c-11-14-23-26-36-37l-13-13c-5-5-8-9-8-12-1-3 1-7 6-13a1187 1187 0 0140-54l1-2c12-16 24-34 31-54 2-6 4-15-1-23s-14-10-20-11l-8-1h-78c-14 0-23 6-28 19l-14 33c-11 22-25 47-44 68l-1 1-5 4c-2-1-4-9-4-13v-90-1c-2-13-6-26-26-30h-83c-15 0-23 7-30 14-1 2-6 8-4 15 3 8 10 9 13 10 9 1 13 6 15 16a262 262 0 01-3 78l-1 2-2-1a422 422 0 01-62-103c-5-14-15-21-28-22H25c-11 1-18 4-22 10-4 7-4 15 0 25 32 69 60 119 92 163 23 31 46 52 72 68a187 187 0 00108 23c23-1 32-10 33-32 0-11 2-21 6-29l4-4 5 2c5 3 8 7 11 10l10 10 19 21c16 16 34 24 54 22h71c9-1 16-5 20-12 5-9 5-21 0-31-6-10-13-19-19-26zm1 47l-3 2h-71-1c-14 1-26-4-37-16l-19-21-10-10c-3-4-8-9-14-13-10-6-17-6-22-5-5 2-12 5-17 14-6 13-8 26-9 38 0 8-1 10-2 10 0 1-3 2-11 3-37 1-69-5-97-21-23-14-44-33-65-62a846 846 0 01-92-165h75c4 0 7 1 10 8 14 34 30 63 49 90 5 7 11 16 20 22s16 6 20 5c4-2 10-5 14-15 3-6 4-12 5-21 2-26 2-47-1-67-2-15-10-25-21-30l7-2h80c5 1 5 2 6 3l2 9v89c0 8 4 27 18 32l1 1c13 4 21-5 26-10l1-1c21-23 36-50 47-73 6-11 11-24 15-34 2-6 4-7 9-6h83c4 0 5 1 6 2l-2 5c-5 18-16 33-28 49l-1 2-19 25-21 29c-15 20-13 34 5 52l13 13c13 11 24 22 35 35 5 6 11 14 16 23 2 4 1 8 0 11z"/><path fill="#FFF" d="M74 170l-4-9a10 10 0 10-18 9l4 9a10 10 0 1018-9zM138 275c-16-22-32-47-47-75a10 10 0 00-18 10c16 29 32 54 49 78a10 10 0 1016-13z"/></svg>