<svg xmlns="http://www.w3.org/2000/svg" viewBox="0 0 512 512"><path fill="#FFF" d="M221.8 131.1a33.7 33.7 0 100 67.4 33.7 33.7 0 000-67.4zm0 51.3a17.7 17.7 0 110-35.3 17.7 17.7 0 010 35.3zM127.7 131.1a33.7 33.7 0 10.1 67.4 33.7 33.7 0 000-67.4zm0 51.3a17.7 17.7 0 110-35.3 17.7 17.7 0 010 35.3z"/><path fill="#FFF" d="M512 327.3c0-40.2-18-77.5-50.5-105.1a8 8 0 00-10.3 12.2 121 121 0 0144.8 92.9c0 38.1-19 74.1-52.3 98.7a8 8 0 00-3 8.2l8.7 39-41.2-24.6a8 8 0 00-6.7-.8 162.5 162.5 0 01-51.4 8.3c-80.5 0-146-57.8-146-128.8s65.5-128.8 146-128.8c26.4 0 52.3 6.3 74.8 18.2a8 8 0 007.5-14.2 176.6 176.6 0 00-82.3-20H349c.3-4 .5-8 .5-12 0-86.2-78.4-156.2-174.7-156.2S0 84.3 0 170.5c0 18 3.4 35.5 10 52.3a8 8 0 0011 4.2 8 8 0 004-10.1 125.2 125.2 0 01-9-46.4C16 93.2 87.2 30.3 174.8 30.3s158.7 62.9 158.7 140.2c0 4.3-.2 8.5-.7 12.8-74.9 7-134.7 60-143.5 126.8a174.5 174.5 0 01-96.4-19.5 8 8 0 00-7.5 0l-36.8 19.6 13-34.6a8 8 0 00-2-8.7c-7.7-7-14.5-15-20.3-23.3a8 8 0 00-13.1 9.2c5.4 7.8 11.6 15.2 18.5 22.1l-18.5 49.6c-2.6 6.7 4.8 13.3 11.2 9.8l51.8-27.5a191 191 0 0099 19.5v1C188.1 407 260.7 472 350 472c18.1 0 36-2.7 53-8l54 32.5c6 3.6 13.4-1.9 12-8.6l-11.7-52.3A138.3 138.3 0 00512 327.3z"/><path fill="#FFF" d="M298.8 293.6a33.7 33.7 0 100 67.4 33.7 33.7 0 000-67.4zm0 51.3a17.7 17.7 0 110-35.3 17.7 17.7 0 010 35.3zM401.4 293.6a33.7 33.7 0 100 67.4 33.7 33.7 0 000-67.4zm0 51.3a17.7 17.7 0 110-35.3 17.7 17.7 0 010 35.3z"/></svg>