<svg xmlns="http://www.w3.org/2000/svg" viewBox="0 0 52 52"><path fill="#FFF" d="M26 0A26 26 0 004 39.8L1 50.2a1 1 0 001.3 1.3l10.3-3.2A26 26 0 0052 26 26 26 0 0026 0zm0 50a24 24 0 01-12.7-3.7 1 1 0 00-.9 0l-9 2.7L6 40l-.1-.8A24 24 0 1126 50z" class="active-path"/><path fill="#FFF" d="M43 32.1c-1.9-1-3.4-2-4.6-2.8l-2-1.2c-1.2-.6-2.2-.2-2.6.2l-.1.1a14 14 0 01-3.7 4.1 24 24 0 01-6.1-4c-2.8-2.3-4.6-4.6-4.9-6.1 1.8-1.9 2.5-3 2.5-4.4 0-1.4-3.2-7.1-3.8-7.7-.6-.6-1.9-.7-3.9-.3a1 1 0 00-.5.3c-.2.2-6 6-3.2 13 3 7.8 10.5 16.7 20.3 18.2 1 .2 2 .2 3 .2 5.8 0 9.1-2.8 10-8.5a1 1 0 00-.4-1zm-12.4 7.4C20.4 38 14 27.8 12 22.6c-2-5 1.7-9.6 2.6-10.7.7-.1 1.5-.2 1.9-.1.6 1 3 5.4 3.1 6.2 0 .5-.2 1.3-2.2 3.3a1 1 0 00-.3.7c0 5.2 11 12.5 13 12.5 1.7 0 4-2.9 5.2-4.7h.4l1.7 1.2 4 2.5c-.7 3.6-2.7 7.2-10.7 6z" class="active-path"/></svg>