<svg xmlns="http://www.w3.org/2000/svg" viewBox="0 0 512 512"><path fill="#FFF" d="M460 264c-3-11-8-20-16-28-9-7-19-12-30-13-35-4-88-6-158-6-71 0-124 2-158 6-12 1-21 6-30 13-8 8-14 17-16 28-5 22-8 56-8 100 0 46 3 79 8 100a52 52 0 0045 42c35 4 88 6 159 6 70 0 123-2 158-6 11-2 21-6 29-14 9-7 14-17 17-28 5-22 7-55 7-100s-2-78-7-100zm-295 29h-31v163h-28V293H76v-27h89v27zm77 163h-25v-16c-11 12-20 18-29 18s-15-4-17-11c-2-4-2-11-2-21V315h25v114c1 4 3 6 6 6 6 0 11-4 17-12V315h25v141zm97-43l-2 29c-4 10-10 16-21 16-9 0-18-6-26-16v14h-26V266h26v62c8-10 17-15 26-15 11 0 17 5 21 16l2 28v56zm97-23h-51v25c0 13 4 20 13 20 6 0 10-4 11-11l1-17h26v4l-1 16c0 5-2 10-6 16-7 10-17 15-31 15-13 0-23-5-31-15-5-7-8-18-8-33v-49c0-15 3-26 8-34 8-9 18-14 31-14 12 0 23 5 30 14 5 8 8 19 8 34v29z"/><path fill="#FFF" d="M303 336c-5 0-9 2-13 6v86c4 4 8 7 13 7 7 0 11-7 11-20v-60c0-13-4-19-11-19zM397 336c-8 0-12 7-12 19v14h25v-14c0-12-4-19-13-19zM148 114v77h29v-77L212 0h-30l-19 75-20-75h-31l19 53c9 27 15 47 17 61zM250 193c13 0 23-5 30-14 5-7 8-19 8-34V95c0-15-3-26-8-33-7-10-17-15-30-15s-23 5-30 15c-5 7-8 18-8 33v50c0 15 3 26 8 34 7 9 17 14 30 14zM238 90c0-13 4-20 12-20s12 7 12 20v60c0 13-4 20-12 20s-12-7-12-20V90zM328 193c10 0 20-6 30-17v15h26V49h-26v109c-6 8-11 12-17 12-3 0-5-2-6-6V49h-26v112l2 22c3 7 9 10 17 10z"/></svg>